<svg width="32" height="32" viewBox="0 0 32 32" fill="none" xmlns="http://www.w3.org/2000/svg">
<g clip-path="url(#clip0_1_21)">
<path d="M15.8977 26.6023C14.1591 26.6023 12.6222 26.3636 11.2869 25.8864C9.9517 25.4148 8.82955 24.7188 7.92045 23.7983C7.01136 22.8778 6.32386 21.75 5.85795 20.4148C5.39205 19.0795 5.15909 17.5511 5.15909 15.8295C5.15909 14.1648 5.39489 12.6761 5.86648 11.3636C6.34375 10.0511 7.03409 8.9375 7.9375 8.02273C8.84659 7.10227 9.94886 6.40057 11.2443 5.91761C12.5455 5.43466 14.017 5.19318 15.6591 5.19318C17.2557 5.19318 18.6534 5.45454 19.8523 5.97727C21.0568 6.49432 22.0625 7.19602 22.8693 8.08239C23.6818 8.96307 24.2898 9.95454 24.6932 11.0568C25.1023 12.1591 25.3068 13.2955 25.3068 14.4659C25.3068 15.2898 25.267 16.125 25.1875 16.9716C25.108 17.8182 24.9403 18.5966 24.6847 19.3068C24.429 20.0114 24.0341 20.5795 23.5 21.0114C22.9716 21.4432 22.2557 21.6591 21.3523 21.6591C20.9545 21.6591 20.517 21.5966 20.0398 21.4716C19.5625 21.3466 19.1392 21.1392 18.7699 20.8494C18.4006 20.5597 18.1818 20.1705 18.1136 19.6818H18.0114C17.875 20.0114 17.6648 20.3239 17.3807 20.6193C17.1023 20.9148 16.7358 21.1506 16.2812 21.3267C15.8324 21.5028 15.2841 21.5795 14.6364 21.5568C13.8977 21.5284 13.2472 21.3636 12.6847 21.0625C12.1222 20.7557 11.6506 20.3409 11.2699 19.8182C10.8949 19.2898 10.6108 18.679 10.4176 17.9858C10.2301 17.2869 10.1364 16.5341 10.1364 15.7273C10.1364 14.9602 10.25 14.2585 10.4773 13.6222C10.7045 12.9858 11.0199 12.429 11.4233 11.9517C11.8324 11.4744 12.3097 11.0937 12.8551 10.8097C13.4063 10.5199 14 10.3409 14.6364 10.2727C15.2045 10.2159 15.7216 10.2415 16.1875 10.3494C16.6534 10.4517 17.0369 10.608 17.3381 10.8182C17.6392 11.0227 17.8295 11.25 17.9091 11.5H18.0114V10.5455H19.8182V18.25C19.8182 18.7273 19.9517 19.1477 20.2188 19.5114C20.4858 19.875 20.875 20.0568 21.3864 20.0568C21.9659 20.0568 22.4091 19.858 22.7159 19.4602C23.0284 19.0625 23.2415 18.4489 23.3551 17.6193C23.4744 16.7898 23.5341 15.7273 23.5341 14.4318C23.5341 13.6705 23.429 12.9205 23.2188 12.1818C23.0142 11.4375 22.7017 10.7415 22.2812 10.0938C21.8665 9.44602 21.3409 8.875 20.7045 8.38068C20.0682 7.88636 19.321 7.5 18.4631 7.22159C17.6108 6.9375 16.642 6.79545 15.5568 6.79545C14.2216 6.79545 13.0256 7.00284 11.9688 7.41761C10.9176 7.8267 10.0227 8.42614 9.28409 9.21591C8.55114 10 7.99148 10.9545 7.60511 12.0795C7.22443 13.1989 7.03409 14.4716 7.03409 15.8977C7.03409 17.3466 7.22443 18.6335 7.60511 19.7585C7.99148 20.8835 8.55966 21.8324 9.30966 22.6051C10.0653 23.3778 11 23.9631 12.1136 24.3608C13.2273 24.7642 14.5114 24.9659 15.9659 24.9659C16.5909 24.9659 17.2074 24.9063 17.8153 24.7869C18.4233 24.6676 18.9602 24.5369 19.4261 24.3949C19.892 24.2528 20.2273 24.1477 20.4318 24.0795L20.9091 25.6477C20.5568 25.7955 20.0966 25.9432 19.5284 26.0909C18.9659 26.2386 18.3636 26.3608 17.7216 26.4574C17.0852 26.554 16.4773 26.6023 15.8977 26.6023ZM14.9091 19.8182C15.6705 19.8182 16.2869 19.6648 16.7585 19.358C17.2301 19.0511 17.5739 18.5881 17.7898 17.9688C18.0057 17.3494 18.1136 16.5682 18.1136 15.625C18.1136 14.6705 17.9943 13.9261 17.7557 13.392C17.517 12.858 17.1648 12.483 16.6989 12.267C16.233 12.0511 15.6591 11.9432 14.9773 11.9432C14.3295 11.9432 13.7756 12.1136 13.3153 12.4545C12.8608 12.7898 12.5114 13.2386 12.267 13.8011C12.0284 14.358 11.9091 14.9659 11.9091 15.625C11.9091 16.3523 12.0057 17.0369 12.1989 17.679C12.392 18.3153 12.7074 18.8324 13.1449 19.2301C13.5824 19.6222 14.1705 19.8182 14.9091 19.8182Z" fill="#6F4486"/>
</g>
<defs>
<clipPath id="clip0_1_21">
<rect width="32" height="32" fill="white"/>
</clipPath>
</defs>
</svg>
